<?xml version="1.0" encoding="UTF-8"?>
<svg width="40px" height="40px" viewBox="0 0 40 40" version="1.1" xmlns="http://www.w3.org/2000/svg" xmlns:xlink="http://www.w3.org/1999/xlink">
    <title>Artboard</title>
    <g id="Artboard" stroke="none" stroke-width="1" fill="none" fill-rule="evenodd">
        <g id="_iconos_Establecer-horas-determinadas-para-consultarlo" transform="translate(2.100000, 0.408060)">
            <g id="Group" transform="translate(13.189833, -0.000000)">
                <path d="M3.5202196,19.2894487 C1.40204398,17.1712731 0.225279745,14.3470389 0.225279745,11.4051283 C0.225279745,8.46321776 1.40204398,5.6389836 3.5202196,3.52080798 C5.63839522,1.40263236 8.46262937,0.225868127 11.40454,0.225868127 C14.3464505,0.225868127 17.1706847,1.40263236 19.2888603,3.52080798 C21.4070359,5.6389836 22.5838002,8.46321776 22.5838002,11.4051283 C22.5838002,14.3470389 21.4070359,17.1712731 19.2888603,19.2894487 C17.1706847,21.4076243 14.3464505,22.5843886 11.40454,22.5843886 C8.46262937,22.5843886 5.63839522,21.4076243 3.5202196,19.2894487 Z M1.87274967,11.4051283 C1.87274967,16.7005674 6.22677733,20.9369186 11.40454,20.9369186 C16.5823026,20.9369186 20.9363302,16.582891 20.9363302,11.4051283 C20.9363302,6.10968929 16.5823026,1.87333805 11.40454,1.87333805 C6.22677733,1.87333805 1.87274967,6.10968929 1.87274967,11.4051283 Z" id="Shape" stroke="#000000" stroke-width="0.75" fill="#003154" fill-rule="nonzero"></path>
                <path d="M11.40454,0.225868127 C8.46262937,0.225868127 5.63839522,1.40263236 3.5202196,3.52080798 C1.40204398,5.6389836 0.225279745,8.46321776 0.225279745,11.4051283 C0.225279745,14.3470389 1.40204398,17.1712731 3.5202196,19.2894487 C5.63839522,21.4076243 8.46262937,22.5843886 11.40454,22.5843886" id="Path" stroke="#000000" stroke-width="0.4191" fill="#045780" fill-rule="nonzero"></path>
                <path d="M11.40454,20.9369186 C6.10910091,20.9369186 1.87274967,16.582891 1.87274967,11.4051283 C1.87274967,6.10968929 6.10910091,1.87333805 11.40454,1.87333805" id="Path" stroke="#000000" stroke-width="0.4191" fill="#045780" fill-rule="nonzero"></path>
                <circle id="Oval" stroke="#000000" stroke-width="0.5" fill="#FFFFFF" fill-rule="nonzero" transform="translate(11.403834, 11.403834) rotate(-12.779885) translate(-11.403834, -11.403834) " cx="11.4038339" cy="11.4038339" r="9.53152568"></circle>
                <g transform="translate(2.755323, 2.814749)">
                    <circle id="Oval" cx="8.64921711" cy="8.5903789" r="8.5903789"></circle>
                    <g transform="translate(8.060835, 0.000000)" id="Path" stroke="#003154" stroke-linecap="round" stroke-width="0.4788">
                        <line x1="0.588382116" y1="0.117676423" x2="0.588382116" y2="1.05908781"></line>
                        <line x1="0.588382116" y1="16.12167" x2="0.588382116" y2="17.0630814"></line>
                    </g>
                    <g transform="translate(0.000000, 8.001997)" id="Path" stroke="#003154" stroke-linecap="round" stroke-width="0.4788">
                        <line x1="0.176514635" y1="0.588382116" x2="1.0002496" y2="0.588382116"></line>
                        <line x1="16.1805082" y1="0.588382116" x2="17.1219196" y2="0.588382116"></line>
                    </g>
                    <g transform="translate(1.059088, 1.000250)" id="Path" stroke="#003154" stroke-linecap="round" stroke-width="0.2349">
                        <g>
                            <g transform="translate(2.941911, 0.000000)">
                                <line x1="0.411867481" y1="0.294191058" x2="0.764896751" y2="0.882573175"></line>
                                <line x1="8.53154069" y1="14.2976854" x2="8.88456996" y2="14.8860675"></line>
                            </g>
                            <g transform="translate(0.000000, 2.941911)">
                                <line x1="0.294191058" y1="8.88456996" x2="0.882573175" y2="8.53154069"></line>
                                <line x1="14.2976854" y1="0.764896751" x2="14.8860675" y2="0.411867481"></line>
                            </g>
                        </g>
                        <g>
                            <g transform="translate(0.000000, 2.941911)">
                                <line x1="0.294191058" y1="0.411867481" x2="0.882573175" y2="0.764896751"></line>
                                <line x1="14.2976854" y1="8.53154069" x2="14.8860675" y2="8.88456996"></line>
                            </g>
                            <g transform="translate(2.941911, 0.000000)">
                                <line x1="0.411867481" y1="14.8860675" x2="0.764896751" y2="14.2976854"></line>
                                <line x1="8.53154069" y1="0.882573175" x2="8.88456996" y2="0.294191058"></line>
                            </g>
                        </g>
                    </g>
                    <circle id="Oval" fill="#003154" fill-rule="nonzero" cx="8.64921711" cy="8.5903789" r="1"></circle>
                    <line x1="8.64921711" y1="8.5903789" x2="12.6502155" y2="6.35452686" id="Path" stroke="#003154" stroke-width="0.7182" stroke-linecap="round"></line>
                    <line x1="8.64921711" y1="8.5903789" x2="3.35377806" y2="5.53079189" id="Path" stroke="#003154" stroke-width="0.7182" stroke-linecap="round"></line>
                    <circle id="Oval" fill="#EC6A06" fill-rule="nonzero" cx="8.64921711" cy="8.5903789" r="1"></circle>
                    <line x1="8.64921711" y1="8.5903789" x2="7.00174719" y2="14.4742001" id="Path" stroke="#EB6608" stroke-width="0.3351" stroke-linecap="round"></line>
                </g>
            </g>
            <g id="Group" transform="translate(0.000000, 16.700567)" fill-rule="nonzero">
                <path d="M10.8262309,0 L1.41211708,0 C0.588382116,0 -1.0451766e-15,0.588382116 -1.0451766e-15,1.41211708 L-1.0451766e-15,19.8873155 C-1.0451766e-15,20.5933741 0.70605854,21.2994326 1.41211708,21.2994326 L10.8262309,21.2994326 C11.6499659,21.2994326 12.238348,20.7110505 12.238348,19.8873155 L12.238348,1.29444066 C12.238348,0.588382116 11.6499659,0 10.8262309,0 Z M10.5908781,17.2984342 L1.76514635,17.2984342 L1.76514635,1.88282277 L10.5908781,1.88282277 L10.5908781,17.2984342 Z" id="Shape" stroke="#000000" stroke-width="0.75" fill="#045780" stroke-linecap="round" stroke-linejoin="round"></path>
                <path d="M6.11917401,20.2403448 C5.41311547,20.2403448 4.94240978,19.7696391 4.94240978,19.181257 C4.94240978,18.5928749 5.41311547,18.1221692 6.11917401,18.1221692 C6.82523255,18.1221692 7.29593824,18.5928749 7.29593824,19.181257 C7.29593824,19.7696391 6.70755613,20.2403448 6.11917401,20.2403448 Z" id="Path" fill="#FFFFFF"></path>
            </g>
            <g id="Group" transform="translate(15.062582, 23.761153)" stroke="#000000" stroke-linecap="round" stroke-linejoin="round" stroke-width="0.75">
                <polyline id="Path" points="0.70605854 12.1206716 0 8.47270248 3.64796912 8.70805532"></polyline>
                <path d="M0,8.47270248 C2.70655774,11.8853188 7.17826182,11.8853188 9.88481956,9.41411386 C12.5913773,6.94290897 12.7090537,2.70655774 10.2378488,0" id="Path"></path>
            </g>
        </g>
    </g>
</svg>